name rise31.4854peak64.571fall78.6902.mot
datacolumns 19
datarows 32
range 2.07332400000000 2.12499800000000
endheader
time	ground_force1_vx	ground_force1_vy	ground_force1_vz	ground_force1_px	ground_force1_py	ground_force1_pz	ground_force2_vx	ground_force2_vy	ground_force2_vz	ground_force2_px	ground_force2_py	ground_force2_pz	ground_torque1_x	ground_torque1_y	ground_torque1_z	ground_torque2_x	ground_torque2_y	ground_torque2_z	
2.07332400000000	-40.90306100000000	821.73672999999997	57.50748600000000	0.09396900000000	0.00000000000000	0.10382500000000	0.00000000000000	0.00000000000000	0.00000000000000	0.00000000000000	0.00000000000000	0.00000000000000	0.00000000000000	18.21727500000000	0.00000000000000	0.00000000000000	0.00000000000000	0.00000000000000	
2.07499200000000	-41.22729500000000	819.26440300000002	57.21602600000000	0.09345500000000	0.00000000000000	0.10376100000000	0.00000000000000	0.00000000000000	0.00000000000000	0.00000000000000	0.00000000000000	0.00000000000000	0.00000000000000	18.15963500000000	0.00000000000000	0.00000000000000	0.00000000000000	0.00000000000000	
2.07665600000000	-41.57404800000000	816.69738299999995	56.90196900000000	0.09294100000000	0.00000000000000	0.10369200000000	-1.47997500000000	3.87643800000000	1.14246100000000	0.00000000000000	0.00000000000000	0.00000000000000	0.00000000000000	18.10453700000000	0.00000000000000	0.00000000000000	0.32434600000000	0.00000000000000	
2.07833000000000	-41.94398300000000	814.03611899999999	56.56536500000000	0.09242600000000	0.00000000000000	0.10361900000000	-2.36044000000000	7.34752600000000	1.94489900000000	0.00000000000000	0.00000000000000	0.00000000000000	0.00000000000000	18.05208900000000	0.00000000000000	0.00000000000000	0.56925400000000	0.00000000000000	
2.07999600000000	-42.33767000000000	811.28097200000002	56.20628500000000	0.09191100000000	0.00000000000000	0.10354000000000	-3.35478300000000	11.52518000000000	2.87729400000000	0.00000000000000	0.00000000000000	0.00000000000000	0.00000000000000	18.00238000000000	0.00000000000000	0.00000000000000	0.85691900000000	0.00000000000000	
2.08166200000000	-42.75558100000000	808.43221300000005	55.82482700000000	0.09139300000000	0.00000000000000	0.10345700000000	-4.43242100000000	16.36064800000000	3.91877800000000	0.00000000000000	0.00000000000000	0.00000000000000	0.00000000000000	17.95548100000000	0.00000000000000	0.00000000000000	1.18180400000000	0.00000000000000	
2.08332900000000	-43.19808700000000	805.49001799999996	55.42111000000000	0.09087400000000	0.00000000000000	0.10336900000000	-5.55525900000000	21.77356800000000	5.04128400000000	0.00000000000000	0.00000000000000	0.00000000000000	0.00000000000000	17.91144800000000	0.00000000000000	0.00000000000000	1.53613700000000	0.00000000000000	
2.08499800000000	-43.66545500000000	802.45445800000005	54.99527700000000	0.09035100000000	0.00000000000000	0.10327600000000	-6.68017500000000	27.65798100000000	6.21141900000000	0.32833800000000	0.00000000000000	-0.06227900000000	0.00000000000000	17.87031700000000	0.00000000000000	0.00000000000000	3.53384200000000	0.00000000000000	
2.08666100000000	-44.15784000000000	799.32550100000003	54.54749300000000	0.08982600000000	0.00000000000000	0.10317800000000	-7.76216300000000	33.89116500000000	7.39294500000000	0.33223600000000	0.00000000000000	-0.06325900000000	0.00000000000000	17.83210500000000	0.00000000000000	0.00000000000000	4.25938600000000	0.00000000000000	
2.08833300000000	-44.67528500000000	796.10300500000005	54.07794400000000	0.08929700000000	0.00000000000000	0.10307500000000	-8.75770100000000	40.34411800000000	8.54956700000000	0.33574900000000	0.00000000000000	-0.06417100000000	0.00000000000000	17.79681100000000	0.00000000000000	0.00000000000000	4.98532500000000	0.00000000000000	
2.08999400000000	-45.21772000000000	792.78671699999995	53.58683600000000	0.08876300000000	0.00000000000000	0.10296700000000	-9.62792100000000	46.89219400000000	9.64763200000000	0.33893000000000	0.00000000000000	-0.06502400000000	0.00000000000000	17.76441400000000	0.00000000000000	0.00000000000000	5.69199700000000	0.00000000000000	
2.09166100000000	-45.78495100000000	789.37627099999997	53.07439800000000	0.08822600000000	0.00000000000000	0.10285400000000	-10.34114200000000	53.42449300000000	10.65839700000000	0.34182000000000	0.00000000000000	-0.06582700000000	0.00000000000000	17.73487500000000	0.00000000000000	0.00000000000000	6.36213000000000	0.00000000000000	
2.09333100000000	-46.37666800000000	785.87118699999996	52.54087700000000	0.08768300000000	0.00000000000000	0.10273600000000	-10.87455000000000	59.85100700000000	11.55963900000000	0.34445600000000	0.00000000000000	-0.06658400000000	0.00000000000000	17.70813300000000	0.00000000000000	0.00000000000000	6.98186800000000	0.00000000000000	
2.09499700000000	-46.99243500000000	782.27087100000006	51.98654100000000	0.08713500000000	0.00000000000000	0.10261300000000	-11.21492100000000	66.10703599999999	12.33650100000000	0.34686700000000	0.00000000000000	-0.06730200000000	0.00000000000000	17.68411000000000	0.00000000000000	0.00000000000000	7.54136600000000	0.00000000000000	
2.09666200000000	-47.63169200000000	778.57461899999998	51.41167700000000	0.08658200000000	0.00000000000000	0.10248500000000	-11.35845700000000	72.15483800000000	12.98161700000000	0.34908000000000	0.00000000000000	-0.06798500000000	0.00000000000000	17.66270600000000	0.00000000000000	0.00000000000000	8.03496300000000	0.00000000000000	
2.09832600000000	-48.29375600000000	774.78161599999999	50.81659200000000	0.08602200000000	0.00000000000000	0.10235200000000	-11.30987200000000	77.98278700000000	13.49459400000000	0.35111700000000	0.00000000000000	-0.06863600000000	0.00000000000000	17.64380200000000	0.00000000000000	0.00000000000000	8.46099100000000	0.00000000000000	
2.09999700000000	-48.97781500000000	770.89093600000001	50.20161300000000	0.08545700000000	0.00000000000000	0.10221400000000	-11.08094000000000	83.60251500000000	13.88101100000000	0.35299500000000	0.00000000000000	-0.06925900000000	0.00000000000000	17.62726000000000	0.00000000000000	0.00000000000000	8.82127400000000	0.00000000000000	
2.10166500000000	-49.68293100000000	766.90155500000003	49.56708600000000	0.08488600000000	0.00000000000000	0.10207100000000	-10.68870100000000	89.04463100000000	14.15110300000000	0.35473100000000	0.00000000000000	-0.06985600000000	0.00000000000000	17.61292300000000	0.00000000000000	0.00000000000000	9.12043700000000	0.00000000000000	
2.10332800000000	-50.40804300000000	762.81234600000005	48.91337800000000	0.08430800000000	0.00000000000000	0.10192300000000	-10.15354100000000	94.35361500000000	14.31828200000000	0.35633900000000	0.00000000000000	-0.07043000000000	0.00000000000000	17.60061200000000	0.00000000000000	0.00000000000000	9.36509500000000	0.00000000000000	
2.10499500000000	-51.15196100000000	758.62208799999996	48.24087400000000	0.08372400000000	0.00000000000000	0.10177000000000	-9.49733400000000	99.58245100000001	14.39766400000000	0.35783100000000	0.00000000000000	-0.07098200000000	0.00000000000000	17.59013400000000	0.00000000000000	0.00000000000000	9.56302700000000	0.00000000000000	
2.10666300000000	-51.91337400000000	754.32947100000001	47.54998400000000	0.08313300000000	0.00000000000000	0.10161200000000	-8.74176600000000	104.78748500000000	14.40469700000000	0.35921800000000	0.00000000000000	-0.07151600000000	0.00000000000000	17.58127400000000	0.00000000000000	0.00000000000000	9.72239200000000	0.00000000000000	
2.10833100000000	-52.69084900000000	749.93310699999995	46.84113300000000	0.08253600000000	0.00000000000000	0.10145000000000	-7.90696700000000	110.02387500000000	14.35401000000000	0.36050800000000	0.00000000000000	-0.07203100000000	0.00000000000000	17.57379900000000	0.00000000000000	0.00000000000000	9.85105300000000	0.00000000000000	
2.10999800000000	-53.48283300000000	745.43152899999995	46.11477200000000	0.08193200000000	0.00000000000000	0.10128300000000	-7.01048200000000	115.34188899999999	14.25850900000000	0.36170900000000	0.00000000000000	-0.07253000000000	0.00000000000000	17.56746100000000	0.00000000000000	0.00000000000000	9.95604000000000	0.00000000000000	
2.11165800000000	-54.28765700000000	740.82320700000002	45.37137000000000	0.08132100000000	0.00000000000000	0.10111100000000	-6.06662400000000	120.78419300000000	14.12876800000000	0.36282800000000	0.00000000000000	-0.07301400000000	0.00000000000000	17.56199500000000	0.00000000000000	0.00000000000000	10.04317200000000	0.00000000000000	
2.11332300000000	-55.10353900000000	736.10655199999997	44.61142200000000	0.08070400000000	0.00000000000000	0.10093500000000	-5.08617200000000	126.38415000000001	13.97270000000000	0.36387200000000	0.00000000000000	-0.07348300000000	0.00000000000000	17.55711800000000	0.00000000000000	0.00000000000000	10.11683400000000	0.00000000000000	
2.11499300000000	-55.92858800000000	731.27992500000005	43.83544200000000	0.08008100000000	0.00000000000000	0.10075500000000	-4.07638800000000	132.16509300000001	13.79547700000000	0.36484600000000	0.00000000000000	-0.07393900000000	0.00000000000000	17.55253400000000	0.00000000000000	0.00000000000000	10.17990300000000	0.00000000000000	
2.11666300000000	-56.76080900000000	726.34165099999996	43.04396900000000	0.07945100000000	0.00000000000000	0.10057000000000	-3.04128900000000	138.14043400000000	13.59967800000000	0.36575300000000	0.00000000000000	-0.07438300000000	0.00000000000000	17.54793300000000	0.00000000000000	0.00000000000000	10.23380800000000	0.00000000000000	
2.11833200000000	-57.59810800000000	721.29002500000001	42.23756700000000	0.07881500000000	0.00000000000000	0.10038000000000	-1.98210800000000	144.31446000000000	13.38559500000000	0.36659900000000	0.00000000000000	-0.07481500000000	0.00000000000000	17.54299200000000	0.00000000000000	0.00000000000000	10.27867500000000	0.00000000000000	
2.11998900000000	-58.43829800000000	716.12332700000002	41.41682100000000	0.07817300000000	0.00000000000000	0.10018700000000	-0.89787200000000	150.68361999999999	13.15165800000000	0.36738700000000	0.00000000000000	-0.07523600000000	0.00000000000000	17.53737500000000	0.00000000000000	0.00000000000000	10.31355800000000	0.00000000000000	
2.12166600000000	-59.27910500000000	710.83983100000000	40.58234200000000	0.07752600000000	0.00000000000000	0.09999000000000	0.21395800000000	157.23812799999999	12.89491500000000	0.36811900000000	0.00000000000000	-0.07564600000000	0.00000000000000	17.53073900000000	0.00000000000000	0.00000000000000	10.33669400000000	0.00000000000000	
2.12332500000000	-60.11817400000000	705.43782099999999	39.73476600000000	0.07687200000000	0.00000000000000	0.09978800000000	1.35685600000000	163.96369100000001	12.61152900000000	0.36879800000000	0.00000000000000	-0.07604700000000	0.00000000000000	17.52272700000000	0.00000000000000	0.00000000000000	10.34578900000000	0.00000000000000	
2.12499800000000	-60.95307600000000	699.91560000000004	38.87475400000000	0.07621400000000	0.00000000000000	0.09958300000000	2.53464900000000	170.84321900000000	12.29725400000000	0.36942800000000	0.00000000000000	-0.07643800000000	0.00000000000000	17.51297800000000	0.00000000000000	0.00000000000000	10.33827600000000	0.00000000000000	
